<?xml version="1.0" encoding="UTF-8" standalone="no"?>
<!-- Created with Inkscape (http://www.inkscape.org/) -->

<svg
   xmlns:dc="http://purl.org/dc/elements/1.1/"
   xmlns:cc="http://creativecommons.org/ns#"
   xmlns:rdf="http://www.w3.org/1999/02/22-rdf-syntax-ns#"
   xmlns:svg="http://www.w3.org/2000/svg"
   xmlns="http://www.w3.org/2000/svg"
   xmlns:sodipodi="http://sodipodi.sourceforge.net/DTD/sodipodi-0.dtd"
   xmlns:inkscape="http://www.inkscape.org/namespaces/inkscape"
   width="512"
   height="512"
   viewBox="0 0 512.00001 512.00001"
   id="svg2"
   version="1.1"
   inkscape:version="0.91 r13725"
   sodipodi:docname="Activated.svg"
   inkscape:export-filename="C:\Users\richa\Desktop\Activated.png"
   inkscape:export-xdpi="90"
   inkscape:export-ydpi="90">
  <defs
     id="defs4">
    <filter
       style="color-interpolation-filters:sRGB;"
       inkscape:label="Drop Shadow"
       id="filter4192">
      <feFlood
         flood-opacity="0.498039"
         flood-color="rgb(0,0,0)"
         result="flood"
         id="feFlood4194" />
      <feComposite
         in="flood"
         in2="SourceGraphic"
         operator="in"
         result="composite1"
         id="feComposite4196" />
      <feGaussianBlur
         in="composite1"
         stdDeviation="3"
         result="blur"
         id="feGaussianBlur4198" />
      <feOffset
         dx="1"
         dy="1"
         result="offset"
         id="feOffset4200" />
      <feComposite
         in="SourceGraphic"
         in2="offset"
         operator="over"
         result="composite2"
         id="feComposite4202" />
    </filter>
  </defs>
  <sodipodi:namedview
     id="base"
     pagecolor="#ffffff"
     bordercolor="#666666"
     borderopacity="1.0"
     inkscape:pageopacity="0.0"
     inkscape:pageshadow="2"
     inkscape:zoom="0.49497475"
     inkscape:cx="-125.59124"
     inkscape:cy="-82.890536"
     inkscape:document-units="px"
     inkscape:current-layer="g4139"
     showgrid="false"
     fit-margin-top="0"
     fit-margin-left="0"
     fit-margin-right="0"
     fit-margin-bottom="0"
     inkscape:window-width="1500"
     inkscape:window-height="937"
     inkscape:window-x="-8"
     inkscape:window-y="-8"
     inkscape:window-maximized="1"
     units="px" />
  <metadata
     id="metadata7">
    <rdf:RDF>
      <cc:Work
         rdf:about="">
        <dc:format>image/svg+xml</dc:format>
        <dc:type
           rdf:resource="http://purl.org/dc/dcmitype/StillImage" />
        <dc:title></dc:title>
      </cc:Work>
    </rdf:RDF>
  </metadata>
  <g
     inkscape:label="Layer 1"
     inkscape:groupmode="layer"
     id="layer1"
     transform="translate(-352.71012,36.84576)">
    <g
       id="g4174"
       transform="translate(-15.909903,-66.164993)">
      <g
         id="g4139"
         transform="matrix(6.1000799,0,0,6.1000799,-1890.9371,-2757.9636)">
        <path
           style="fill:#00bcf2"
           inkscape:connector-curvature="0"
           d="m 355.48805,404.45678 29.37917,-4.03809 0,28.35122 -29.37718,0 -0.002,-24.31313 z m 29.37917,27.94147 0,28.03061 -29.37551,-4.03249 -0.002,-23.99681 29.37719,0 0,-0.001 z m 3.24988,-32.42534 39.09352,-5.37378 0,34.17078 -39.09352,0 0,-28.797 z m 39.09355,32.42534 0,33.84488 -39.09355,-5.36851 0,-28.47637 39.09355,0 z"
           id="path4140"
           transform="translate(15.909903,66.164991)" />
        <g
           id="g4187"
           style="filter:url(#filter4192)"
           transform="translate(-3.6431254,-3.2934281e-8)">
          <path
             id="path4168"
             d="m 424.20446,503.62101 c 0.39914,6.92609 0.53342,13.42844 1.03213,19.48259 l 5.16813,0 c 0.35316,-6.75757 0.57894,-13.69368 0.96699,-19.48259 l -7.16725,0 z"
             style="fill:#ffffff;fill-opacity:1;stroke:none"
             inkscape:connector-curvature="0" />
          <path
             id="rect4158"
             d="m 427.7832,523.58144 c -1.92359,0 -3.48301,1.55941 -3.48301,3.48301 0,1.92359 1.55942,3.48301 3.48301,3.48301 1.9236,0 3.48301,-1.55942 3.48301,-3.48301 0,-1.9236 -1.55941,-3.48301 -3.48301,-3.48301 z"
             style="fill:#f9f9f9;fill-opacity:1;stroke:none"
             inkscape:connector-curvature="0" />
          <path
             style="fill:#ff0000;stroke:#ffffff;stroke-width:1.63932276;stroke-opacity:1"
             inkscape:connector-curvature="0"
             d="m 427.73125,493.40115 c -1.12311,0.004 -2.25407,0.54285 -3.05772,1.61516 -1.25992,1.68114 -20.78792,34.42599 -21.76467,36.49537 -0.73224,2.47247 1.0224,4.99645 2.59845,4.89481 0.38731,0.0946 5.36296,0.11799 22.49519,0.10481 21.43973,-0.0165 20.74299,0.036 21.50268,-0.009 2.33094,0.0329 3.98626,-2.78404 3.12553,-4.83008 -0.11812,-0.26396 -2.65074,-4.48065 -5.62842,-9.37044 -2.9777,-4.88978 -7.77953,-12.92873 -10.66811,-17.86546 -2.8886,-4.93674 -5.40246,-9.18579 -5.58836,-9.44133 -0.77617,-1.06692 -1.89145,-1.59743 -3.01457,-1.59359 z m -2.73715,12.3665 5.58836,0 c -0.30254,4.51328 -0.47986,9.92147 -0.75519,15.18996 l -4.02867,0 c -0.38881,-4.72007 -0.49331,-9.79009 -0.8045,-15.18996 z m 2.78955,18.06582 c 1.78413,0 3.23034,1.44621 3.23034,3.23034 0,1.78412 -1.44621,3.23033 -3.23034,3.23033 -1.78412,0 -3.23033,-1.44621 -3.23033,-3.23033 0,-1.78413 1.44621,-3.23034 3.23033,-3.23034 z"
             id="path4151" />
        </g>
      </g>
    </g>
  </g>
</svg>
